<svg xmlns="http://www.w3.org/2000/svg" viewBox="0 0 220 40" fill="none">
  <!-- Mascot icon (scaled to 32x32, offset to center in 32px box) -->
  <g transform="translate(0, 0) scale(0.5)">
    <!-- Antennae -->
    <line x1="24" y1="18" x2="18" y2="6" stroke="#67e8f9" stroke-width="2.5" stroke-linecap="round"/>
    <line x1="40" y1="18" x2="46" y2="6" stroke="#67e8f9" stroke-width="2.5" stroke-linecap="round"/>
    <circle cx="18" cy="5" r="2.5" fill="#67e8f9"/>
    <circle cx="46" cy="5" r="2.5" fill="#67e8f9"/>
    <!-- Body -->
    <ellipse cx="32" cy="38" rx="24" ry="20" fill="#374151"/>
    <ellipse cx="32" cy="32" rx="20" ry="14" fill="#4a5568"/>
    <ellipse cx="32" cy="36" rx="22" ry="16" fill="#3d4b5e"/>
    <!-- Eyes -->
    <ellipse cx="22" cy="36" rx="8" ry="8.5" fill="#1e293b"/>
    <ellipse cx="42" cy="36" rx="8" ry="8.5" fill="#1e293b"/>
    <circle cx="22" cy="36" r="6" fill="#3b82f6"/>
    <circle cx="42" cy="36" r="6" fill="#3b82f6"/>
    <circle cx="22" cy="36" r="3.5" fill="#1d4ed8"/>
    <circle cx="42" cy="36" r="3.5" fill="#1d4ed8"/>
    <circle cx="20" cy="34" r="1.8" fill="#fff" opacity="0.9"/>
    <circle cx="40" cy="34" r="1.8" fill="#fff" opacity="0.9"/>
    <circle cx="24" cy="38" r="0.8" fill="#fff" opacity="0.5"/>
    <circle cx="44" cy="38" r="0.8" fill="#fff" opacity="0.5"/>
    <!-- Mouth -->
    <ellipse cx="32" cy="48" rx="4" ry="2" fill="#f472b6"/>
    <ellipse cx="32" cy="48.5" rx="2.5" ry="1" fill="#ec4899"/>
    <!-- Shell lines -->
    <path d="M20 24 Q32 20 44 24" stroke="#5a6577" stroke-width="0.8" fill="none" opacity="0.5"/>
    <path d="M16 30 Q32 26 48 30" stroke="#5a6577" stroke-width="0.8" fill="none" opacity="0.5"/>
  </g>
  <!-- Text -->
  <text x="40" y="28" font-family="Inter, system-ui, sans-serif" font-size="22" font-weight="700" fill="#fafafa">ZeptoClaw</text>
</svg>
